<?xml version="1.0" encoding="UTF-8" standalone="no"?>
<!DOCTYPE svg PUBLIC "-//W3C//DTD SVG 1.1//EN" "http://www.w3.org/Graphics/SVG/1.1/DTD/svg11.dtd">
<svg width="100%" height="100%" viewBox="0 0 14 14" version="1.1" xmlns="http://www.w3.org/2000/svg" xmlns:xlink="http://www.w3.org/1999/xlink" xml:space="preserve" style="fill-rule:evenodd;clip-rule:evenodd;stroke-linejoin:round;stroke-miterlimit:1.41421;">
    <g transform="matrix(1.33333,0,0,1.33333,0,0)">
        <g id="Shape-3" transform="matrix(0.0847489,0,0,0.132447,-81.2322,-22.0998)">
            <path d="M976.749,180.992L1057.27,180.992C1059.33,180.992 1061.01,182.752 1061.01,184.923C1061.01,187.094 1059.33,188.854 1057.27,188.854L976.749,188.854C974.681,188.854 973.005,187.094 973.005,184.923C973.005,182.752 974.681,180.992 976.749,180.992Z" style="fill:white;"/>
        </g>
        <g id="Shape-3-copy" transform="matrix(0.0847489,0,0,0.132447,-81.2322,-22.0998)">
            <path d="M997.802,200.92L1057.27,200.92C1059.33,200.92 1061.01,202.68 1061.01,204.851C1061.01,207.022 1059.33,208.782 1057.27,208.782L997.802,208.782C995.733,208.782 994.057,207.022 994.057,204.851C994.057,202.68 995.733,200.92 997.802,200.92Z" style="fill:white;"/>
        </g>
        <g id="Shape-3-copy-2" transform="matrix(0.0847489,0,0,0.132447,-81.2322,-22.0998)">
            <path d="M976.749,220.138L1057.27,220.138C1059.33,220.138 1061.01,221.898 1061.01,224.069C1061.01,226.24 1059.33,228 1057.27,228L976.749,228C974.681,228 973.005,226.24 973.005,224.069C973.005,221.898 974.681,220.138 976.749,220.138Z" style="fill:white;"/>
        </g>
    </g>
</svg>
